<svg width="25" height="23" viewBox="0 0 25 23" fill="none" xmlns="http://www.w3.org/2000/svg">
<path opacity="0.2" d="M22.6958 13.9946C24.6983 11.293 25.6486 7.70746 24.5131 4.18382C22.8764 0.630104 18.8189 -0.963186 14.9187 0.600434L13.0887 5.3871L14.036 6.65032L12.4866 8.76807L12.8613 6.9847L11.4113 5.62098L12.4866 2.627C10.0319 -0.409156 5.19314 -0.977017 1.98356 1.9291C-0.491709 4.52584 -0.488792 8.71517 1.10162 12.1022C2.99854 15.6302 6.73965 18.8569 10.215 21.5103C10.8335 21.9657 11.7076 22.8504 12.4867 23C13.3681 22.9236 16.6933 20.175 18.1792 18.7858C19.7942 17.4055 21.374 15.8265 22.6958 13.9946Z" fill="#B583F3"/>
</svg>
