<svg width="289" height="96" viewBox="0 0 289 96" fill="none" xmlns="http://www.w3.org/2000/svg">
<path fill-rule="evenodd" clip-rule="evenodd" d="M38.7293 80.0463C28.6994 78.9784 9.84019 75.7274 6.73626 73.029C6.37693 72.7166 6.04418 72.4421 5.73483 72.1869C3.81395 70.6022 2.79501 69.7616 1.91407 65.2142C1.97608 64.2714 1.98852 61.4995 1.5422 57.9545C1.41777 56.9662 1.28872 56.142 1.1798 55.4464C0.800368 53.0233 0.665281 52.1606 1.82119 51.3548C2.78205 50.685 3.28734 49.6219 3.75018 48.6481C4.00396 48.1142 4.24498 47.6071 4.54134 47.2064C4.94986 46.6541 5.20327 44.237 5.48546 41.5455C5.78133 38.7233 6.10884 35.5995 6.67995 34.007C7.79575 30.8957 9.6554 26.653 10.8642 25.7102C12.073 24.7674 37.0854 22.7874 39.6889 22.7874C40.9979 22.3892 44.0577 20.8232 47.2791 19.1743C48.6342 18.4808 50.0178 17.7726 51.3118 17.1305C55.6819 14.9621 71.861 8.36235 75.5803 6.94813C79.2996 5.5339 100.089 0.829859 112.636 0.363782C124.942 -0.0933394 140.289 0.716036 149.132 2.05868C157.632 3.34938 167.784 5.19699 181.17 11.0982C189.197 14.6369 195.003 18.2547 201.077 22.0396C204.701 24.2973 208.42 26.6146 212.762 29.01C217.633 29.9537 224.486 30.4377 232.17 30.9804C247.516 32.0643 266.177 33.3822 278.983 39.0641C284.002 42.8626 288.536 52.4406 288.734 62.5103C288.536 65.5112 287.231 72.9834 285.512 75.713C285.338 75.9903 285.229 76.2368 285.132 76.4571C284.576 77.7226 284.4 78.1223 274.249 78.5099C269.943 78.6744 267.309 78.5837 265.835 78.5329C265.249 78.5127 264.847 78.4989 264.596 78.5099C264.596 78.5099 234.433 80.4124 214.213 80.0463C214.333 80.0463 134.22 81.1511 92.0732 81.7035C92.0732 81.7035 60.3939 80.0463 38.7293 80.0463ZM67.8044 29.699C67.8579 28.8945 78.3695 17.3502 89.7794 13.0083C112.906 4.2076 134.564 3.11633 161.634 10.6673C178.914 15.4876 191.077 22.5392 202.785 31.2685L67.8044 29.699Z" fill="white"/>
<path fill-rule="evenodd" class="body" clip-rule="evenodd" d="M38.7293 80.0463C28.6994 78.9784 9.84019 75.7274 6.73626 73.029C6.37693 72.7166 6.04418 72.4421 5.73483 72.1869C3.81395 70.6022 2.79501 69.7616 1.91407 65.2142C1.97608 64.2714 1.98852 61.4995 1.5422 57.9545C1.41777 56.9662 1.28872 56.142 1.1798 55.4464C0.800368 53.0233 0.665281 52.1606 1.82119 51.3548C2.78205 50.685 3.28734 49.6219 3.75018 48.6481C4.00396 48.1142 4.24498 47.6071 4.54134 47.2064C4.94986 46.6541 5.20327 44.237 5.48546 41.5455C5.78133 38.7233 6.10884 35.5995 6.67995 34.007C7.79575 30.8957 9.6554 26.653 10.8642 25.7102C12.073 24.7674 37.0854 22.7874 39.6889 22.7874C40.9979 22.3892 44.0577 20.8232 47.2791 19.1743L47.2794 19.1742C48.6343 18.4807 50.0179 17.7726 51.3118 17.1305C55.6819 14.9621 71.861 8.36235 75.5803 6.94813C79.2996 5.5339 100.089 0.829859 112.636 0.363782C124.942 -0.0933394 140.289 0.716036 149.132 2.05868C157.632 3.34938 167.784 5.19699 181.17 11.0982C189.197 14.6369 195.003 18.2547 201.077 22.0396C204.701 24.2973 208.42 26.6146 212.762 29.01C217.633 29.9537 224.486 30.4377 232.17 30.9804C247.516 32.0643 266.177 33.3822 278.983 39.0641C282.711 41.8856 286.171 47.8956 287.786 54.9274C284.27 54.4921 280.637 53.3352 278.93 52.5562C276.861 51.6112 277.223 53.3854 277.248 53.5009L277.249 53.5067V56.6622C277.249 58.4356 278.271 59.5528 282.407 60.9813C284.654 61.7576 287.027 62.0686 288.727 62.2098C288.729 62.3099 288.732 62.4101 288.734 62.5103C288.536 65.5112 287.231 72.9834 285.512 75.713C285.338 75.9903 285.229 76.2368 285.132 76.4571C284.576 77.7226 284.4 78.1223 274.249 78.5099C269.943 78.6744 267.309 78.5837 265.835 78.5329C265.249 78.5127 264.847 78.4989 264.596 78.5099C264.596 78.5099 234.433 80.4124 214.213 80.0463C214.333 80.0463 134.22 81.1511 92.0732 81.7035C92.0732 81.7035 60.3939 80.0463 38.7293 80.0463ZM173.707 14.6922C169.954 13.2168 165.953 11.8721 161.633 10.667C134.563 3.116 112.906 4.20727 89.7788 13.008C78.3688 17.3499 67.8573 28.8942 67.8037 29.6987L67.8044 29.6987C67.8044 29.6988 67.8044 29.6989 67.8044 29.699L202.785 31.2685C202.318 30.9205 201.851 30.5752 201.382 30.2326C193.037 24.1292 184.369 18.883 173.707 14.6922Z" fill="#434A5B"/>
<path class="window" opacity="0.3" d="M89.7788 13.008C78.3688 17.3499 67.8573 28.8942 67.8037 29.6987L202.784 31.2681C191.076 22.5388 178.914 15.4873 161.633 10.667C134.563 3.116 112.906 4.20727 89.7788 13.008Z" fill="white"/>
<path d="M87.5472 73.1808C87.5472 85.2026 77.9371 94.9399 66.0927 94.9399C54.2483 94.9399 44.6382 85.2026 44.6382 73.1808C44.6382 61.159 54.2483 51.4218 66.0927 51.4218C77.9371 51.4218 87.5472 61.159 87.5472 73.1808Z" fill="#434A5B" stroke="black" stroke-width="0.7"/>
<path d="M258.898 71.8078C258.898 83.8281 249.247 93.5668 237.348 93.5668C225.449 93.5668 215.798 83.8281 215.798 71.8078C215.798 59.7875 225.449 50.0487 237.348 50.0487C249.247 50.0487 258.898 59.7875 258.898 71.8078Z" fill="#434A5B" stroke="black" stroke-width="0.7"/>
<ellipse cx="66.0976" cy="73.1807" rx="12.4078" ry="12.5811" fill="white"/>
<ellipse cx="237.344" cy="71.8079" rx="12.13" ry="12.9315" fill="white"/>
</svg>
