<svg width="25" height="7" viewBox="0 0 25 7" fill="none" xmlns="http://www.w3.org/2000/svg">
<path d="M7.77831 2.5441C7.77831 4.45086 6.23256 5.99661 4.3258 5.99661C2.41903 5.99661 0.873291 4.45086 0.873291 2.5441C0.873291 2.06577 0.969915 1.73325 1.11265 1.49534C1.25375 1.26015 1.46156 1.08115 1.74729 0.94403C2.34826 0.655614 3.22942 0.57959 4.3258 0.57959C5.42218 0.57959 6.30333 0.655614 6.90431 0.94403C7.19003 1.08115 7.39784 1.26015 7.53894 1.49534C7.68168 1.73325 7.77831 2.06577 7.77831 2.5441Z" fill="#434A5B" stroke="#434A5B"/>
<path d="M16.0417 2.54393C16.0417 4.4507 14.496 5.99644 12.5892 5.99644C10.6825 5.99644 9.13672 4.4507 9.13672 2.54393C9.13672 2.06587 9.23325 1.7276 9.37806 1.48193C9.52145 1.23869 9.73215 1.05212 10.0187 0.908247C10.6187 0.607044 11.4995 0.516057 12.5892 0.516057C13.6789 0.516057 14.5598 0.607044 15.1597 0.908247C15.4463 1.05212 15.657 1.23869 15.8004 1.48193C15.9452 1.7276 16.0417 2.06587 16.0417 2.54393Z" fill="#434A5B" stroke="#434A5B"/>
<rect class="filled" x="14.1854" y="-1.51074" width="0.48236" height="9.57504" transform="rotate(31.4127 14.1854 -1.51074)" fill="white"/>
<rect class="filled" x="4.63989" y="-1.51074" width="0.48236" height="9.57504" transform="rotate(31.4127 4.63989 -1.51074)" fill="white"/>
<rect class="filled" x="15.3392" y="-1.51074" width="1.38826" height="9.57504" transform="rotate(31.4127 15.3392 -1.51074)" fill="white"/>
<path d="M10.3488 1.30518L6.29468 1.41727" stroke="#434A5B" stroke-width="0.7" stroke-linecap="round" stroke-linejoin="round"/>
<path d="M23.6776 4.25973C21.9254 4.52246 21.026 4.40366 19.4987 3.94287" stroke="#434A5B" stroke-width="0.7" stroke-linecap="round" stroke-linejoin="round"/>
</svg>
