<svg width="13" height="45" viewBox="0 0 13 45" fill="none" xmlns="http://www.w3.org/2000/svg">
<path d="M2.34719 17.0159C1.87566 9.51324 0.68489 7.69617 4.23719 5.27029C4.88698 4.93818 6.57906 3.50949 7.75735 2.81638C9.2302 1.95 9.01644 3.40307 7.49103 4.86685C6.11407 6.18817 4.82358 6.54365 4.64312 8.81215C4.50753 10.5165 5.79354 10.2962 6.24117 10.0652C7.49103 8.81215 7.75843 8.5057 8.58041 8.5057C9.40239 8.5057 9.01469 9.43046 7.75843 11.2066C6.62246 12.8126 6.16081 13.285 5.38111 13.9781C4.75734 14.5326 5.75024 16.9386 6.24117 17.9494L2.34719 17.0159Z" stroke="#434A5B" stroke-width="0.7" stroke-linecap="round" stroke-linejoin="round"/>
<path fill-rule="evenodd" clip-rule="evenodd" d="M1.33362 16.4274C1.22983 17.0168 1.189 17.7159 1.22958 18.535C1.26004 19.1498 1.28956 19.7483 1.3183 20.3309C2.09581 36.0934 2.30197 40.2729 5.10974 42.7663C11.2216 48.1939 11.8056 36.51 6.35833 16.3165C6.35308 16.297 6.3477 16.2776 6.34219 16.2583L1.33362 16.4274Z" fill="#B583F3"/>
</svg>
