<svg width="40" height="132" viewBox="0 0 40 132" fill="none" xmlns="http://www.w3.org/2000/svg">
<path fill-rule="evenodd" clip-rule="evenodd" d="M31.1177 88.1454C32.1644 99.1692 33.4244 112.441 33.7753 122.797H25.838C23.0929 107.855 20.4583 86.1777 18.79 70.3014C20.679 66.5346 25.6659 67.8861 29.7166 72.0091C29.9539 75.8884 30.4985 81.6235 31.1177 88.1454ZM15.8614 121.583C16.3597 111.028 16.2721 97.8839 16.2003 87.1239V87.1238V87.1237C16.1594 80.9863 16.1237 75.6246 16.2048 71.9616C12.511 67.516 8.50618 69.0358 6.31055 72.6324C6.33063 73.5691 6.35089 74.5228 6.37146 75.4912L6.37146 75.4914L6.37146 75.4915C6.68321 90.1688 7.06672 108.224 8.0151 121.583H15.8614Z" fill="#434A5B"/>
<path d="M12.1838 22.2985C1.86658 23.846 1.92392 60.5236 3.34005 76.4492C3.37696 76.8643 3.67286 77.1979 4.07619 77.3028C16.2 80.4535 23.4679 78.7066 30.7738 76.0652C31.2007 75.9109 31.4682 75.4947 31.4246 75.0429C29.3751 53.784 25.1112 20.3596 12.1838 22.2985Z" fill="#B583F3"/>
<circle cx="13.805" cy="11.5242" r="10.1049" stroke="#434A5B" stroke-width="0.7"/>
<path d="M32.8154 62.816C33.0936 65.5948 34.2642 70.0876 34.7285 68.8721C34.9505 68.2907 34.7471 66.7701 34.7285 66.1728C35.1204 67.1247 36.2819 69.6332 37.6257 70.3947C39.3055 71.3466 40.3296 68.3386 35.282 61.4517" stroke="#434A5B" stroke-width="0.7" stroke-linecap="round" stroke-linejoin="round"/>
<path d="M26.0689 130.569C25.4462 130.063 25.7181 126.755 27.4422 124.023L27.681 118.031L31.0243 116.777L31.6205 123.924C35.0236 131.268 33.6268 131.065 32.6025 131.489C31.1752 132.079 27.681 132.393 26.0689 130.569Z" fill="#434A5B"/>
<path d="M0.0892444 127.128C1.22712 125.657 7.11682 123.306 9.6855 122.457L9.9243 116.465L13.2677 115.211L13.8638 122.358C14.6863 126.198 14.7599 127.003 14.0805 127.707C13.0391 128.786 7.47249 128.483 0.545322 127.772C0.162796 127.733 -0.145991 127.432 0.0892444 127.128Z" fill="#434A5B"/>
<path fill-rule="evenodd" clip-rule="evenodd" d="M31.3995 63.9141L36.1092 61.1401C32.6415 40.284 14.6163 13.9797 13.414 26.5174C12.5675 35.3447 13.7769 41.6325 24.1764 55.4181C27.3353 59.6056 29.6652 62.2949 31.3995 63.9141Z" fill="#B583F3"/>
<path d="M11.9858 1.52669C8.86478 2.34419 6.57102 4.13078 5.20046 5.59226C5.21462 5.54314 5.22952 5.49332 5.24518 5.44286C5.52526 4.54046 6.04619 3.44494 6.95958 2.41494C7.7852 1.48392 9.14884 1.15875 10.4215 1.22249C11.0228 1.25261 11.5709 1.36894 11.9858 1.52669ZM15.6102 8.49606C14.2142 6.31711 13.7531 3.7062 13.6484 2.12916C15.7006 1.47478 18.2021 2.40921 20.2432 4.389C22.2805 6.36512 23.7299 9.2735 23.669 12.2814C21.6283 12.4107 20.0167 12.0464 18.7402 11.3977C17.3732 10.7029 16.3598 9.66612 15.6102 8.49606Z" fill="#434A5B" stroke="#434A5B"/>
<path d="M28.627 59.4901C28.627 59.4901 22.5372 51.1314 19.0146 36.3247" stroke="#434A5B" stroke-width="0.7" stroke-linecap="round" stroke-linejoin="round"/>
</svg>
