<svg width="19" height="27" viewBox="0 0 19 27" fill="none" xmlns="http://www.w3.org/2000/svg">
<path d="M8.09845 17.6247C7.95486 16.7628 8.02603 15.9495 8.31197 15.1847C8.5962 14.4097 8.98647 13.7488 9.48278 13.2021C9.97908 12.6554 10.4762 12.1139 10.9743 11.5774C11.4829 11.0392 11.886 10.4553 12.1835 9.82571C12.49 9.18409 12.5859 8.51953 12.4714 7.83204C12.3244 6.94958 11.8512 6.26384 11.0518 5.7748C10.2613 5.27374 9.3157 5.1149 8.21499 5.29827C7.51646 5.41464 6.90024 5.6333 6.36632 5.95426C5.8307 6.26496 5.42977 6.60067 5.16354 6.9614C4.89561 7.31187 4.68673 7.65777 4.53692 7.9991C4.38712 8.34044 4.29397 8.63015 4.25749 8.86823L4.18434 9.21262L1.0786 8.59106C1.09701 8.44035 1.12359 8.24082 1.15836 7.99247C1.19313 7.74413 1.35145 7.29064 1.63331 6.63202C1.91518 5.9734 2.26723 5.37691 2.68945 4.84255C3.11167 4.30819 3.76213 3.77272 4.64083 3.23614C5.51954 2.69955 6.5357 2.33516 7.68933 2.14298C9.81667 1.78857 11.6666 2.08678 13.239 3.03759C14.8098 3.97815 15.7319 5.26931 16.0055 6.91109C16.1986 8.07059 16.1475 9.10207 15.852 10.0055C15.5548 10.8987 15.135 11.6436 14.5927 12.2401C14.0591 12.8247 13.5108 13.3853 12.9475 13.9221C12.3949 14.4571 11.9563 15.0891 11.6318 15.8181C11.3055 16.5368 11.2159 17.3374 11.3629 18.2199L11.4142 18.5277L8.49311 19.0143C8.30009 18.5086 8.16854 18.0455 8.09845 17.6247ZM9.40033 24.558C8.90861 24.2181 8.61744 23.7762 8.52684 23.2323C8.43453 22.6782 8.56586 22.1607 8.92084 21.6797C9.27581 21.1988 9.73376 20.9116 10.2947 20.8181C10.8556 20.7247 11.382 20.8479 11.8737 21.1878C12.3654 21.5277 12.6574 21.9747 12.7498 22.5288C12.8404 23.0727 12.7082 23.5851 12.3532 24.0661C11.9965 24.5368 11.5377 24.8188 10.9768 24.9123C10.4158 25.0057 9.89035 24.8876 9.40033 24.558Z" fill="#434A5B"/>
</svg>
