<svg width="11" height="10" viewBox="0 0 11 10" fill="none" xmlns="http://www.w3.org/2000/svg">
<path d="M5.1268 1.0681C5.27414 0.602603 5.93285 0.602603 6.08019 1.0681L6.91126 3.69385C6.96037 3.849 7.08192 3.97055 7.23708 4.01966L9.86283 4.85074C10.3283 4.99807 10.3283 5.65679 9.86283 5.80412L7.23708 6.6352C7.08192 6.68431 6.96037 6.80586 6.91126 6.96102L6.08019 9.58676C5.93285 10.0523 5.27414 10.0523 5.1268 9.58676L4.29572 6.96102C4.24662 6.80586 4.12507 6.68431 3.96991 6.6352L1.34416 5.80412C0.878665 5.65679 0.878665 4.99807 1.34416 4.85074L3.96991 4.01966C4.12507 3.97055 4.24662 3.849 4.29572 3.69385L5.1268 1.0681Z" fill="#FFB662"/>
</svg>
