<svg width="18" height="18" viewBox="0 0 18 18" fill="none" xmlns="http://www.w3.org/2000/svg">
<path d="M17.2877 5.5667C17.2487 4.68114 17.1055 4.07232 16.9003 3.54477C16.6887 2.98479 16.3631 2.48344 15.9365 2.06667C15.5198 1.64341 15.0151 1.31452 14.4616 1.1062C13.931 0.901052 13.3254 0.757846 12.4398 0.718801C11.5476 0.676449 11.2644 0.666656 9.00161 0.666656C6.7388 0.666656 6.45556 0.676449 5.56669 0.715494C4.68113 0.754539 4.07232 0.897872 3.54489 1.10289C2.98479 1.31452 2.48344 1.6401 2.06667 2.06667C1.64341 2.48344 1.31464 2.9881 1.10619 3.54159C0.901052 4.07232 0.757845 4.67783 0.718801 5.5634C0.676449 6.45557 0.666656 6.73881 0.666656 9.00162C0.666656 11.2644 0.676449 11.5477 0.715494 12.4365C0.754539 13.3221 0.897872 13.9309 1.10302 14.4585C1.31464 15.0184 1.64341 15.5198 2.06667 15.9366C2.48344 16.3598 2.9881 16.6887 3.54159 16.897C4.07232 17.1022 4.67783 17.2454 5.56352 17.2844C6.45226 17.3236 6.73562 17.3333 8.99843 17.3333C11.2612 17.3333 11.5445 17.3236 12.4333 17.2844C13.3189 17.2454 13.9277 17.1022 14.4551 16.897C15.5752 16.464 16.4608 15.5784 16.8938 14.4585C17.0989 13.9277 17.2422 13.3221 17.2812 12.4365C17.3203 11.5477 17.3301 11.2644 17.3301 9.00162C17.3301 6.73881 17.3268 6.45557 17.2877 5.5667ZM15.7869 12.3714C15.751 13.1854 15.6143 13.6249 15.5003 13.9179C15.2203 14.644 14.644 15.2203 13.9179 15.5003C13.6249 15.6143 13.1822 15.751 12.3714 15.7867C11.4923 15.8259 11.2287 15.8356 9.00491 15.8356C6.78115 15.8356 6.51419 15.8259 5.6383 15.7867C4.82434 15.751 4.3848 15.6143 4.09177 15.5003C3.73045 15.3668 3.40156 15.1552 3.13461 14.8784C2.85786 14.6082 2.64623 14.2826 2.51269 13.9212C2.39874 13.6282 2.26202 13.1854 2.22628 12.3747C2.18711 11.4956 2.17744 11.2319 2.17744 9.0081C2.17744 6.78434 2.18711 6.51738 2.22628 5.64161C2.26202 4.82765 2.39874 4.38811 2.51269 4.09509C2.64623 3.73364 2.85786 3.40487 3.13792 3.13779C3.40805 2.86104 3.73363 2.64941 4.09508 2.516C4.38811 2.40205 4.83095 2.26533 5.6416 2.22946C6.52068 2.19042 6.78446 2.18062 9.00809 2.18062C11.2352 2.18062 11.4988 2.19042 12.3747 2.22946C13.1887 2.26533 13.6282 2.40205 13.9212 2.516C14.2826 2.64941 14.6114 2.86104 14.8784 3.13779C15.1551 3.40805 15.3668 3.73364 15.5003 4.09509C15.6143 4.38811 15.751 4.83083 15.7869 5.64161C15.8259 6.52069 15.8357 6.78434 15.8357 9.0081C15.8357 11.2319 15.8259 11.4923 15.7869 12.3714Z" fill="black"/>
<path d="M9.0016 4.72018C6.63794 4.72018 4.72017 6.63783 4.72017 9.00162C4.72017 11.3654 6.63794 13.2831 9.0016 13.2831C11.3654 13.2831 13.283 11.3654 13.283 9.00162C13.283 6.63783 11.3654 4.72018 9.0016 4.72018ZM9.0016 11.7789C7.46818 11.7789 6.22434 10.5352 6.22434 9.00162C6.22434 7.46807 7.46818 6.22436 9.0016 6.22436C10.5352 6.22436 11.7789 7.46807 11.7789 9.00162C11.7789 10.5352 10.5352 11.7789 9.0016 11.7789Z" fill="black"/>
<path d="M14.452 4.55091C14.452 5.10288 14.0044 5.55043 13.4523 5.55043C12.9004 5.55043 12.4528 5.10288 12.4528 4.55091C12.4528 3.99881 12.9004 3.55139 13.4523 3.55139C14.0044 3.55139 14.452 3.99881 14.452 4.55091Z" fill="black"/>
</svg>
