<svg width="20" height="13" viewBox="0 0 20 13" fill="none" xmlns="http://www.w3.org/2000/svg">
<path d="M18.3875 1.54793C17.8902 0.663343 17.3505 0.500635 16.2517 0.43876C15.154 0.364281 12.3936 0.333344 10.0023 0.333344C7.60635 0.333344 4.84489 0.364281 3.74833 0.437614C2.65177 0.500635 2.11093 0.662198 1.60906 1.54793C1.09687 2.43136 0.833328 3.95303 0.833328 6.63199C0.833328 6.63428 0.833328 6.63543 0.833328 6.63543C0.833328 6.63772 0.833328 6.63886 0.833328 6.63886V6.64116C0.833328 9.30866 1.09687 10.8418 1.60906 11.7161C2.11093 12.6006 2.65062 12.7611 3.74718 12.8355C4.84489 12.8997 7.60635 12.9375 10.0023 12.9375C12.3936 12.9375 15.154 12.8997 16.2528 12.8367C17.3517 12.7622 17.8913 12.6018 18.3886 11.7172C18.9054 10.8429 19.1667 9.3098 19.1667 6.6423C19.1667 6.6423 19.1667 6.63886 19.1667 6.63657C19.1667 6.63657 19.1667 6.63428 19.1667 6.63313C19.1667 3.95303 18.9054 2.43136 18.3875 1.54793ZM7.70833 10.0729V3.19793L13.4375 6.63543L7.70833 10.0729Z" fill="black"/>
</svg>
