<svg width="10" height="20" viewBox="0 0 10 20" fill="none" xmlns="http://www.w3.org/2000/svg">
<path d="M9.28577 0.837158L6.97138 0.833344C4.37125 0.833344 2.69093 2.60425 2.69093 5.3452V7.42547H0.363915C0.162833 7.42547 0 7.59293 0 7.79949V10.8136C0 11.0201 0.163019 11.1874 0.363915 11.1874H2.69093V18.7928C2.69093 18.9994 2.85376 19.1667 3.05484 19.1667H6.09093C6.29201 19.1667 6.45484 18.9992 6.45484 18.7928V11.1874H9.17566C9.37675 11.1874 9.53958 11.0201 9.53958 10.8136L9.54069 7.79949C9.54069 7.70031 9.50226 7.60533 9.43412 7.53514C9.36598 7.46495 9.27314 7.42547 9.17659 7.42547H6.45484V5.662C6.45484 4.81441 6.65147 4.38412 7.72632 4.38412L9.28539 4.38355C9.48629 4.38355 9.64912 4.21609 9.64912 4.00972V1.21098C9.64912 1.00481 9.48648 0.83754 9.28577 0.837158Z" fill="black"/>
</svg>
