<svg width="95" height="30" viewBox="0 0 95 30" fill="none" xmlns="http://www.w3.org/2000/svg">
<g clip-path="url(#clip0)">
<path d="M42.6163 13.846H44.8229V6.13829C44.8229 5.76906 44.8689 5.63059 44.9149 5.58443C44.9609 5.53828 45.0988 5.44598 45.4206 5.44598H48.6846V13.846H50.8912V5.44598H52.9599C53.3736 5.44598 53.9253 5.49213 54.2931 5.90752C54.6608 6.3229 54.7068 6.87677 54.7068 7.3383V13.7998H56.9134V6.96905C56.9134 5.95367 56.5916 5.03061 55.994 4.47676C55.2585 3.83061 54.1552 3.69214 53.4196 3.69214H44.3632C43.9035 3.69214 43.2139 3.78444 42.8462 4.29213C42.6163 4.66136 42.5703 5.16906 42.5703 5.44598V13.846H42.6163ZM68.4523 3.78445H66.1997L62.7978 11.4921L59.5798 3.73828H57.2812L61.7405 13.7998L60.2234 17.0768H62.476L68.4523 3.78445ZM77.2788 13.846V12.1383H73.6471C72.7277 12.1383 71.6244 12.046 71.1187 11.0768C70.8428 10.5229 70.7969 9.55368 70.7969 8.99983C70.7969 8.67675 70.7969 7.61523 70.9808 7.10753C71.2106 6.23061 71.9461 5.49215 73.4632 5.49215H77.049V3.78445H72.7277C70.9348 3.78445 70.0613 4.43059 69.6476 4.89213C68.5443 6.04597 68.4983 7.79983 68.4983 8.99983C68.4983 10.4306 68.5902 11.6768 69.4177 12.6921C70.3372 13.7998 71.6703 13.9383 72.4059 13.9383H77.2788V13.846ZM78.9798 3.73828V5.44598H83.9447C84.2665 5.44598 84.7262 5.49214 85.048 5.86137C85.2779 6.18445 85.3239 6.50752 85.3239 6.83059V7.5229H80.9566C80.4049 7.5229 79.7613 7.56905 79.1177 8.1229C78.3362 8.76905 78.2443 9.69215 78.2443 10.5691C78.2443 11.3075 78.2902 12.5998 79.1177 13.2921C79.6694 13.7998 80.4049 13.7998 80.9566 13.7998H85.7836C86.2433 13.7998 86.795 13.7537 87.1627 13.3844C87.5305 13.0152 87.5765 12.4614 87.5765 12.0921V6.83059C87.5765 5.7229 87.2547 4.89213 86.841 4.43059C86.3812 3.96905 85.5997 3.646 84.7722 3.646H78.9798V3.73828ZM85.3239 9.27674V11.5844C85.3239 11.7229 85.3239 11.8614 85.186 11.9998C85.048 12.0921 84.8182 12.0921 84.6803 12.0921H81.6002C81.3244 12.0921 81.0485 11.9537 80.8647 11.7691C80.5888 11.4921 80.5428 10.9383 80.5428 10.6614C80.5428 9.9229 80.7267 9.69214 80.7727 9.55368C81.0026 9.23061 81.4163 9.2306 81.6002 9.2306H85.3239V9.27674ZM89.0476 13.846H91.2542V8.1229C91.2542 7.33828 91.3461 6.64598 91.7599 6.13829C92.3115 5.49213 93.0931 5.44598 93.6447 5.44598H94.5642V3.73828H93.0471C92.2656 3.73828 90.9784 3.78445 90.013 4.61522C89.1395 5.35368 88.9556 6.46138 88.9556 7.56907V13.846H89.0476Z" fill="#6C06E8"/>
<path d="M23.9515 0.230713C28.3188 0.230713 31.8586 3.41533 31.9966 7.38456V7.61533V22.4307C31.9966 26.4461 28.5027 29.723 24.1814 29.8615H23.9056H7.81553C3.44823 29.8615 -0.0915775 26.6769 -0.229492 22.7076V22.4769V7.66147C-0.229492 3.64609 3.26435 0.369174 7.58567 0.230713H7.86149H23.9515ZM26.2961 12.0923C23.262 13.4769 19.2624 14.2615 15.9065 14.2615C12.5506 14.2615 8.50511 13.4769 5.51695 12.0923C3.99989 11.4461 4.09185 12.2769 4.09185 12.923V15.5999V15.7384C4.13782 17.1692 5.05723 18.0922 8.55107 19.2922C10.7117 20.0307 13.3321 20.3999 15.9525 20.3999C18.5729 20.3999 21.1933 20.0307 23.3539 19.2922C26.8018 18.0922 27.7212 17.1692 27.8132 15.7384V15.5999V12.923C27.7212 12.2769 27.7672 11.4461 26.2961 12.0923Z" fill="#6C06E8"/>
<path d="M44.3627 27.3231V22.4308H45.9717V21.4154H44.3627C44.3627 20.9539 44.5466 20.6769 44.6845 20.5846C44.9144 20.4462 45.2822 20.4 45.9717 20.4V19.4308C45.3281 19.4308 44.2248 19.477 43.6732 19.9385C43.1675 20.3539 43.0755 21.0462 43.0755 21.4154H42.248V22.3846H43.0755V27.2769H44.3627V27.3231ZM46.5234 27.3231H47.8106V21.4154H46.5234V27.3231ZM47.8106 20.5385V19.5231H46.5234V20.5385H47.8106ZM48.6841 27.3231H49.9713V22.7539C49.9713 22.6616 49.9713 22.5693 50.0172 22.5231C50.0632 22.4769 50.1551 22.477 50.2471 22.477H51.5803C52.04 22.477 52.3158 22.5693 52.4997 22.8462C52.7296 23.1231 52.7296 23.4923 52.7296 23.9077V27.4154H54.0168V23.5385C54.0168 22.7077 53.7409 22.2923 53.4191 22.0154C52.9594 21.6 52.4077 21.5539 51.7641 21.5539H49.6954C49.4196 21.5539 49.0518 21.5539 48.776 21.8308C48.5921 22.0154 48.5921 22.2923 48.5921 22.477V27.3231H48.6841ZM55.258 21.4154V22.4308H58.1542C58.3381 22.4308 58.6139 22.477 58.7978 22.7077C58.9357 22.8923 58.9817 23.077 58.9817 23.2616V23.6769H56.4532C56.1314 23.6769 55.7637 23.677 55.3959 24C54.9362 24.3693 54.8902 24.9231 54.8902 25.4308C54.8902 25.8462 54.9362 26.6308 55.3959 27.0462C55.7177 27.3231 56.1314 27.3231 56.4532 27.3231H59.2575C59.5334 27.3231 59.8552 27.3231 60.085 27.0923C60.3149 26.8616 60.3149 26.5385 60.3149 26.3539V23.3077C60.3149 22.6616 60.131 22.1539 59.9011 21.9231C59.6253 21.6462 59.1656 21.4616 58.6599 21.4616H55.258V21.4154ZM58.9357 24.6462V25.9846C58.9357 26.0769 58.9357 26.1693 58.8438 26.2154C58.7518 26.2616 58.6139 26.2616 58.568 26.2616H56.7751C56.5912 26.2616 56.4532 26.1693 56.3613 26.077C56.2234 25.8923 56.1774 25.6154 56.1774 25.4308C56.1774 25.0154 56.2694 24.8308 56.3153 24.7846C56.4532 24.6 56.6831 24.6 56.7751 24.6H58.9357V24.6462ZM61.0964 27.3231H62.3836V22.7539C62.3836 22.6616 62.3836 22.5693 62.4295 22.5231C62.4755 22.4769 62.5675 22.477 62.6594 22.477H63.9926C64.4523 22.477 64.7281 22.5693 64.912 22.8462C65.1419 23.1231 65.1419 23.4923 65.1419 23.9077V27.4154H66.4291V23.5385C66.4291 22.7077 66.1533 22.2923 65.8315 22.0154C65.3717 21.6 64.8201 21.5539 64.1765 21.5539H62.1077C61.8319 21.5539 61.4641 21.5539 61.1883 21.8308C61.0044 22.0154 61.0044 22.2923 61.0044 22.477V27.3231H61.0964ZM72.3134 27.3231V26.3077H70.1988C69.6471 26.3077 69.0035 26.2616 68.7277 25.6616C68.5897 25.3385 68.5438 24.7847 68.5438 24.4154C68.5438 24.2308 68.5438 23.6308 68.6357 23.3077C68.7736 22.8 69.1874 22.3846 70.0608 22.3846H72.1755V21.3693H69.6471C68.5897 21.3693 68.084 21.7385 67.8542 22.0154C67.2106 22.7077 67.2106 23.7231 67.2106 24.4154C67.2106 25.2462 67.2566 25.9846 67.7623 26.5846C68.3139 27.2308 69.0495 27.3231 69.5092 27.3231H72.3134ZM78.3817 27.3231V26.3077H75.5314C75.0717 26.3077 74.5201 26.2616 74.3362 25.6154C74.2902 25.4308 74.2442 25.0616 74.2442 24.7846H77.6462C77.876 24.7846 78.1059 24.7385 78.2897 24.5539C78.5196 24.3231 78.5656 23.9539 78.5656 23.6769C78.5656 22.9385 78.4276 22.2 77.7381 21.7846C77.1864 21.4616 76.4969 21.4154 75.8073 21.4154C75.2556 21.4154 74.2442 21.4154 73.6006 21.9692C72.957 22.5231 72.9111 23.3539 72.9111 24.4616C72.9111 25.2462 72.957 26.0308 73.3248 26.6308C73.8305 27.3231 74.5201 27.3693 75.1177 27.3693H78.3817V27.3231ZM74.2442 23.7693C74.2442 23.4 74.2442 23.0769 74.5201 22.7539C74.8878 22.3385 75.3935 22.3846 75.7613 22.3846C76.1291 22.3846 76.5428 22.3846 76.8646 22.6616C77.0485 22.8 77.2324 23.0769 77.2324 23.4462C77.2324 23.5846 77.1864 23.7693 76.9566 23.7693H74.2442Z" fill="#6C06E8"/>
</g>
<defs>
<clipPath id="clip0">
<rect width="95" height="30" fill="white"/>
</clipPath>
</defs>
</svg>
