<svg width="116" height="30" viewBox="0 0 116 30" fill="none" xmlns="http://www.w3.org/2000/svg">
<path d="M42.6153 19.7076H44.822V11.9999C44.822 11.6306 44.8679 11.4922 44.9139 11.446C44.9599 11.3999 45.0978 11.3076 45.4196 11.3076H48.6836V19.7076H50.8902V11.3076H52.9589C53.3727 11.3076 53.9243 11.3537 54.2921 11.7691C54.6599 12.1845 54.7058 12.7845 54.7058 13.1998V19.7076H56.9125V12.8768C56.9125 11.8614 56.5907 10.9383 55.993 10.3845C55.2575 9.73832 54.1542 9.59985 53.4186 9.59985H44.3622C43.9025 9.59985 43.213 9.69216 42.8452 10.1998C42.6153 10.5691 42.5693 11.0768 42.5693 11.3537V19.7076H42.6153Z" fill="#30C884"/>
<path d="M68.4972 9.64602H66.2446L62.8428 17.3537L59.6247 9.59985H57.3262L61.8314 19.6614L60.3143 22.9845H62.5669L68.4972 9.64602Z" fill="#30C884"/>
<path d="M77.3236 19.7076V17.9999H73.6918C72.7724 17.9999 71.669 17.9076 71.1634 16.9383C70.8875 16.3845 70.8415 15.4152 70.8415 14.8152C70.8415 14.4922 70.8416 13.4306 71.0254 12.9229C71.2553 12.046 71.9909 11.3076 73.5079 11.3076H77.0937V9.59985H72.7724C70.9795 9.59985 70.106 10.246 69.6923 10.7076C68.5889 11.8614 68.543 13.6152 68.543 14.8152C68.543 16.246 68.6349 17.4922 69.4624 18.5075C70.3818 19.6152 71.715 19.7537 72.4506 19.7537H77.3236V19.7076Z" fill="#30C884"/>
<path d="M89.1388 19.7076H91.3455V13.9845C91.3455 13.1999 91.4374 12.5076 91.8511 11.9999C92.4028 11.3537 93.1843 11.3076 93.736 11.3076H94.6554V9.59985H93.1383C92.3568 9.59985 91.0696 9.64602 90.1042 10.4768C89.2308 11.2152 89.0469 12.3229 89.0469 13.4306V19.7076H89.1388Z" fill="#30C884"/>
<path d="M79.0246 9.59985V11.3076H83.9895C84.3113 11.3076 84.771 11.3537 85.0928 11.7691C85.3227 12.0922 85.3687 12.4152 85.3687 12.7383V13.4306H81.0014C80.4497 13.4306 79.8061 13.4768 79.1625 14.0306C78.381 14.6768 78.2891 15.5999 78.2891 16.4768C78.2891 17.2152 78.335 18.5076 79.1625 19.246C79.7142 19.7537 80.4497 19.7537 81.0014 19.7537H85.8284C86.2881 19.7537 86.8398 19.7076 87.2076 19.3383C87.5753 18.9691 87.6213 18.4152 87.6213 18.046V12.7845C87.6213 11.6768 87.2995 10.846 86.8858 10.3845C86.426 9.92294 85.6445 9.59985 84.817 9.59985H79.0246ZM85.3687 15.1383V17.446C85.3687 17.5845 85.3687 17.7229 85.2308 17.8614C85.0929 17.9537 84.863 17.9537 84.7251 17.9537H81.645C81.3692 17.9537 81.0933 17.8152 80.9094 17.6306C80.6336 17.3537 80.5876 16.7999 80.5876 16.5229C80.5876 15.7845 80.7715 15.5076 80.8175 15.4153C81.0474 15.0922 81.4611 15.0922 81.645 15.0922H85.3687V15.1383Z" fill="#30C884"/>
<path d="M96.3114 20.2628V17.8188H94V20.2628H96.3114Z" fill="#30C884"/>
<path d="M100.423 7V14.0024C100.542 13.8274 100.675 13.6829 100.787 13.556L103.818 10.2208H106.395L102.625 14.2759C102.454 14.4654 102.303 14.6738 102.303 14.9959C102.303 15.318 102.53 15.659 102.776 15.9242L106.887 20.2628H104.235L100.768 16.5873C100.66 16.4721 100.535 16.3268 100.423 16.1525V20.2628H98.2059V7H100.423Z" fill="#30C884"/>
<path d="M115.394 11.4909C115.394 10.6952 114.864 10.2208 114.087 10.2208H106.982V11.9267H112.457C112.609 11.9267 112.647 12.0214 112.647 12.0783C112.647 12.1161 112.628 12.1722 112.495 12.3056L107.342 17.4777L107.342 17.4778C107.001 17.8188 106.66 18.1599 106.66 18.9176C106.66 20.2059 107.74 20.2628 108.081 20.2628H115.337V18.5577L109.538 18.5584C109.487 18.5555 109.445 18.5387 109.445 18.4629C109.445 18.3871 109.502 18.3106 109.597 18.2166L114.807 12.855C115.091 12.5708 115.394 12.2488 115.394 11.4909Z" fill="#30C884"/>
<path d="M24.4566 0.0924072C28.8239 0.0924072 32.4096 3.27701 32.5476 7.2924V7.52317V22.3847C32.5476 26.4001 29.0537 29.677 24.7324 29.8155H24.4566H8.27458C3.90728 29.8155 0.321508 26.6309 0.183594 22.6155V22.3847V7.52317C0.183594 3.50778 3.67743 0.230869 7.99876 0.0924072H8.27458H24.4566ZM26.7552 11.954C23.721 13.3386 19.6755 14.1232 16.3656 14.1232C13.0556 14.1232 8.96415 13.2924 5.976 11.954C4.45894 11.3078 4.55089 12.1386 4.55089 12.7847V15.5078V15.6463C4.59686 17.077 5.51627 18.0001 9.01011 19.2001C11.1708 19.9385 13.7912 20.3078 16.4116 20.3078C19.0319 20.3078 21.6523 19.9385 23.813 19.2001C27.2608 18.0001 28.2262 17.077 28.2722 15.6463V15.5078V12.7847C28.2262 12.1386 28.2722 11.3078 26.7552 11.954Z" fill="#30C884"/>
</svg>
