<svg width="48" height="30" viewBox="0 0 48 30" fill="none" xmlns="http://www.w3.org/2000/svg">
<g clip-path="url(#clip0)">
<path d="M29.8226 27.9998H23.6533V1.99817H29.8226V27.9998ZM21.4291 14.9994C21.4291 17.1185 20.8007 19.1901 19.6234 20.9521C18.4461 22.7141 16.7727 24.0874 14.8148 24.8983C12.857 25.7093 10.7027 25.9215 8.62425 25.508C6.54583 25.0946 4.63668 24.0742 3.13823 22.5757C1.63977 21.0772 0.619305 19.1681 0.205882 17.0897C-0.207542 15.0113 0.00464262 12.8569 0.815602 10.8991C1.62656 8.94126 2.99987 7.26787 4.76187 6.09054C6.52387 4.91321 8.59542 4.28482 10.7146 4.28482C12.1216 4.28482 13.5149 4.56196 14.8148 5.10041C16.1148 5.63887 17.296 6.4281 18.2909 7.42304C19.2858 8.41797 20.0751 9.59914 20.6135 10.8991C21.152 12.199 21.4291 13.5923 21.4291 14.9994ZM13.9611 14.9994C13.9611 14.3571 13.7706 13.7292 13.4137 13.1952C13.0569 12.6612 12.5497 12.2449 11.9563 11.9992C11.3628 11.7534 10.7099 11.6892 10.0799 11.8145C9.45001 11.9399 8.8714 12.2492 8.41729 12.7035C7.96318 13.1577 7.65397 13.7364 7.52876 14.3663C7.40355 14.9963 7.46797 15.6493 7.71388 16.2426C7.95978 16.836 8.37612 17.3431 8.91024 17.6998C9.44436 18.0565 10.0723 18.2468 10.7146 18.2467C11.141 18.2467 11.5632 18.1627 11.9571 17.9995C12.3511 17.8363 12.709 17.5971 13.0105 17.2955C13.3119 16.994 13.5511 16.636 13.7142 16.242C13.8773 15.848 13.9612 15.4258 13.9611 14.9994ZM45.4269 8.48795H41.3247L38.9211 10.8916L36.5175 8.48795H32.4153V12.6542L34.7861 15.025L32.4153 17.3966V21.506H36.5703L38.9187 19.1576L41.267 21.506H45.4269V17.3998L43.0553 15.0282L45.4269 12.6542V8.48795Z" fill="black"/>
</g>
<defs>
<clipPath id="clip0">
<rect width="45.4229" height="26" fill="white" transform="translate(0 2)"/>
</clipPath>
</defs>
</svg>
